<?xml version="1.0" encoding="UTF-8"?><svg id="Layer_1" xmlns="http://www.w3.org/2000/svg" xmlns:xlink="http://www.w3.org/1999/xlink" viewBox="0 0 180 180"><defs><style>.cls-1{fill:#fff;}.cls-2{clip-path:url(#clippath-2);}.cls-3{clip-path:url(#clippath-6);}.cls-4{fill:#ff8218;}.cls-5{clip-path:url(#clippath-1);}.cls-6{clip-path:url(#clippath-4);}.cls-7{fill:#ff6900;}.cls-8{clip-path:url(#clippath);}.cls-9{fill:none;}.cls-10{fill:#d3c9e7;}.cls-11{clip-path:url(#clippath-3);}.cls-12{fill:#77bc2e;}.cls-13{clip-path:url(#clippath-5);}.cls-14{fill:#c3b7df;}.cls-15{fill:#00108a;}</style><clipPath id="clippath"><path class="cls-9" d="M35.95,94.8c-2.56,.27-5.11,.54-7.68,.81-1.13,.13-2.66,.4-3.73,.53-.18,.02-.32,.18-.3,.37l.05,.67,1.7,21.76s.08,.91,.11,1.37c0,.14-.1,.29-.24,.3-1.45,.25-2.42,.37-3.84,.56-1.9,.25-3.81,.45-5.72,.61-.65,.05-1.34-.03-1.97-.16-.18-.03-.37-.43-.4-.68-.43-2.93-.81-5.86-1.21-8.79-.76-5.59-1.51-11.18-2.26-16.77-.8-5.89-1.54-11.8-2.36-17.7-.49-3.58-1.05-7.15-1.58-10.73-.11-.73-.18-1.47-.27-2.2-.13-1.05,.73-1.23,1.35-1.34,3.39-.62,21.33-2.91,26.9-3.71,.83-.13,1.02,.35,1.1,.96,.21,1.54,.37,2.61,.56,4.16,.25,1.99,.7,4.49,1.02,6.47,.1,.61,0,1-.56,1.11-1.61,.33-4.94,.86-4.94,.86,0,0-9.21,1.61-9.7,1.67-.16,.03-.25,.16-.24,.32,.27,2.13,.92,8.86,1.11,10.02,.11,.73,.53,.94,1.23,.84,2.58-.33,4.33-.59,6.91-.91,1.34-.16,2.66-.33,4-.49h.06c.29-.05,.54,.16,.57,.45,.21,1.48,1.35,8.2,1.37,8.39,.1,.96-.08,1.16-1.05,1.26l-.02,.02Z"/></clipPath><clipPath id="clippath-1"><path class="cls-9" d="M110.13,56.35c5.4-.32,13.2-.84,18.59-1.16,4.41-.25,12.1-.83,13.94-.97,.62-.05,.59,.38,.65,.72,.4,2.55,.75,5.42,1.15,7.95,.18,1.16,.24,2.31,.43,3.47,.21,1.26-1.02,1.16-1.08,1.16-1.45,.05-7.39,.37-8.76,.57-.21,.03-.37,.22-.35,.43,.14,3.25,.27,6.4,.41,9.57,.21,4.38,.41,8.76,.62,13.14,.19,4.27,.38,8.54,.56,12.81,.05,1.23,.08,2.47,.11,3.7,.02,.61-.21,.83-.88,.84-1.59,.05-2.36,.22-3.95,.33-1.31,.1-7.93,.8-8.01,.8-1.48,.13-1.43-.94-1.51-1.93-.49-5.56-1-11.13-1.48-16.69-.41-4.75-.67-9.17-1.04-13.94-.19-2.56-.46-5.45-.61-7.96,0-.24-.21-.41-.45-.38-1.48,.11-6.64,.46-6.66,.48-.22,.02-.4-.08-.56-.21-.25-.22-.4-.54-.43-.88l-1.26-8.74-.22-1.96c-.03-.33,.06-.68,.29-.92,.13-.13,.29-.24,.48-.24l.02,.02Z"/></clipPath><clipPath id="clippath-2"><path class="cls-9" d="M154.84,69.61c.75-.13,1.11,.03,1.35,.81,1.16,3.71,2.42,7.39,3.6,11.09,1.32,4.14,2.64,8.3,3.9,12.47,.92,3.04,1.75,6.12,2.66,9.32,.05,.16-.06,.33-.22,.37-.72,.14-1.4,.29-2.09,.4-1.11,.18-3.03,.46-4.14,.61-.64,.08-1.16,0-1.48-.7-.75-1.58-1.86-4.09-2.66-5.65-.19-.37-.41-.72-.61-1.04-.06-.1-.18-.16-.29-.14-1.88,.27-3.47,.37-5.18,.62-.13,.02-.22,.11-.24,.24-.38,2.28-.48,5.51-.81,7.79-.1,.61-.3,.84-.91,.92-2.5,.33-4.35,.7-6.83,1.1-.64,.1-.59-.3-.61-.68-.06-2.17-.13-4.33-.16-6.48-.13-9.17-.24-18.35-.38-27.52,0-.75,.21-1.04,.97-1.16,4.71-.73,9.41-1.51,14.11-2.31v-.03Z"/></clipPath><clipPath id="clippath-3"><path class="cls-9" d="M70.65,116.46c-.8,.05-6.04,.76-7.55,1.02-.91,.16-1.45-.8-1.61-1.31-.24-.75-4.32-11.44-4.32-11.44,0,0-.13-.32-.19-.49-.05-.13-.18-.21-.32-.18-2.34,.4-4.65,.78-6.88,1.16-.13,.02-.22,.13-.24,.24-.45,3.49-1.99,11.47-2.17,12.71-.08,.51-.32,.72-.86,.78-2.23,.25-4.44,.62-6.67,.81-.56,.05-1.13-.33-1.74-.59-.11-.05-.19-.18-.18-.29,.41-4.14,.81-8.15,1.19-12.17,.49-5.13,.97-10.26,1.48-15.37,.53-5.22,1.08-10.45,1.62-15.69,.25-2.42,.48-4.86,.75-7.28,.14-1.35,.18-1.35,1.54-1.48,3.22-.29,6.45-.54,9.67-.84,.59-.05,.94,.03,1.18,.67,1.37,3.84,2.82,7.65,4.17,11.48,1.32,3.74,2.56,7.52,3.84,11.28,1.58,4.6,3.15,9.21,4.73,13.81,1.31,3.77,2.61,7.57,3.92,11.34,.41,1.19,.13,1.74-1.42,1.85l.03-.03Z"/></clipPath><clipPath id="clippath-4"><path class="cls-9" d="M77.09,116.11c-1.51,.24-1.48,.24-1.69-1.35-.94-7.37-1.75-14.73-2.69-22.11-.97-7.66-1.93-15.34-2.93-23-.11-.83,.13-1.16,.96-1.26,3.04-.37,6.08-.8,9.13-1.19,1.99-.25,3.44,.64,4.76,2.07,2.34,2.56,4.83,4.99,7.26,7.47,1.15,1.18,2.42,2.52,3.55,3.71,.11,.13,.54,.65,1,1.07,.19,.18,.49,0,.46-.25h0c-.73-5.73-1.66-11.77-2.39-17.5-.53-4.03-.46-3.09-1-7.1-.06-.46,.08-.65,.51-.75,4.67-.91,10.85-1.53,10.85-1.53,1-.08,1.18,.05,1.29,.84,.33,2.47,1.16,8.41,1.58,11.88,.48,3.95,3.41,28.8,4.65,39.56,.06,.54,.14,1.59,.32,3.79,.06,.94-.37,1.07-.75,1.18-.62,.18-4.56,.78-6.23,1.05-.54,.1-.84-.11-1.19-.49-6.64-7.49-18.25-21.01-18.28-21.06-.27-.32-.62-.22-.62-.22l-.33,.08c-.14,.03-.25,.18-.24,.32,.05,.65,.48,4.94,.78,7.76,.33,3.27,1.47,12.22,1.47,12.22,0,0,.21,1.94,.24,2.91,0,.51-.41,.68-.92,.75-2.93,.35-6.04,.73-8.97,1.1-.19,.02-.38,.03-.57,.06h.02Z"/></clipPath><clipPath id="clippath-5"><path class="cls-9" d="M35.95,94.8c-2.56,.27-5.11,.54-7.68,.81-1.13,.13-2.66,.4-3.73,.53-.18,.02-.32,.18-.3,.37l.05,.67,1.7,21.76s.08,.91,.11,1.37c0,.14-.1,.29-.24,.3-1.45,.25-2.42,.37-3.84,.56-1.9,.25-3.81,.45-5.72,.61-.65,.05-1.34-.03-1.97-.16-.18-.03-.37-.43-.4-.68-.43-2.93-.81-5.86-1.21-8.79-.76-5.59-1.51-11.18-2.26-16.77-.8-5.89-1.54-11.8-2.36-17.7-.49-3.58-1.05-7.15-1.58-10.73-.11-.73-.18-1.47-.27-2.2-.13-1.05,.73-1.23,1.35-1.34,3.39-.62,21.33-2.91,26.9-3.71,.83-.13,1.02,.35,1.1,.96,.21,1.54,.37,2.61,.56,4.16,.25,1.99,.7,4.49,1.02,6.47,.1,.61,0,1-.56,1.11-1.61,.33-4.94,.86-4.94,.86,0,0-9.21,1.61-9.7,1.67-.16,.03-.25,.16-.24,.32,.27,2.13,.92,8.86,1.11,10.02,.11,.73,.53,.94,1.23,.84,2.58-.33,4.33-.59,6.91-.91,1.34-.16,2.66-.33,4-.49h.06c.29-.05,.54,.16,.57,.45,.21,1.48,1.35,8.2,1.37,8.39,.1,.96-.08,1.16-1.05,1.26l-.02,.02Z"/></clipPath><clipPath id="clippath-6"><path class="cls-9" d="M29.78,43.1c-.78-.83-1.51-1.7-2.25-2.56-.33-.4-.32-.62,.1-.96,.53-.43,5.69-2.39,7.71-3.14,9.6-3.57,13.2-6.63,20.29-6.56,9.76,.08,12.79,3.06,13.65,3.55,.48,.29,1.59,1.07,1.59,1.07,9.13,5.72,13.14,17.57,14.14,20.18,2.26,5.91,7.72,15.91,7.85,16.25,.27,.73,.14,1.02-.59,1.27-.43,.16-6.29-9.25-6.29-9.27-2.52-4.17-6.8-4.89-8.97-4.62-.59,.08-1.16,.18-1.16,.19-.3,.03-2.53,.38-3.7,.56-13.75,2.13-17.93,.76-21.01-.21-4.51-1.42-8.87-4.3-12.47-7.23-4.73-3.84-8.17-7.76-8.89-8.52h-.02Z"/></clipPath></defs><g id="Layer_1-2"><g><path class="cls-1" d="M150.6,78.95c-.16-.43-.32-.91-.48-1.37v-.03c-.19-.54-.38-1.11-.61-1.69-1.02-2.68-1.97-5.14-2.91-7.52-.11-.27-.22-.56-.32-.83v-.05c-.48-1.18-.96-2.4-1.62-3.66-1.91-3.5-4.32-6.51-6.66-9.41-.38-.46-.75-.94-1.11-1.4-1.93-2.42-4.08-4.62-5.97-6.56-2.95-3.01-5.96-5.92-8.25-8.14-1.11-1.07-2.26-2.01-3.38-2.93l-.56-.46c-.84-.7-1.7-1.39-2.47-2.01-1.43-1.15-2.91-2.34-4.28-3.55-.81-.7-1.93-1.61-3.39-2.26-.13-.06-.33-.16-.61-.3-1.61-.8-5.35-2.66-10.4-4.14-.32-.1-1.32-.38-7.84-.76h-.24c-.54-.05-1.1-.08-1.7-.1-3.58-.08-7.17-.14-10.75-.22h-.51c-1.61,0-3.2,.18-6.4,.57-3.17,.4-5.51,.78-6.94,1.13-5.94,1.48-9.94,3.11-14.56,4.99-.92,.38-1.86,.76-2.85,1.16-.86,.33-1.72,.76-2.66,1.27-.08,.05-.16,.08-.24,.13-.7,.38-1.67,.91-2.55,1.75-2.28,2.2-4.16,4.59-5.99,6.93-.38,.48-.76,.97-1.15,1.45-.18,.22-1.07,1.27-2.02,2.37-1.64,1.91-3.7,4.28-4.43,5.22-1.05,1.34-5.4,7.26-6.07,8.41-1.39,2.39-2.6,4.79-3.6,6.85l-.16,.3h0c-1.47,3.01-2.99,6.12-3.89,9.65-.22,.88-.38,1.75-.53,2.52-.25,1.35-.67,11.18-.4,13.01,.46,3.17,1.08,7.37,1.78,11.67,.46,2.87,.97,5.73,1.47,8.51l.35,1.97,.05,.29v.08c.13,.72,.29,1.7,.75,2.74l.64,1.39c1.56,3.42,3.17,6.96,4.87,10.4,1.8,3.62,4.11,6.74,6.37,9.76,.78,1.05,7.68,7.92,9.52,9.14,2.47,1.62,4.78,3.03,7.07,4.25,3.87,2.07,7.8,4.11,11.63,6.07,.96,.49,4.84,1.67,5.75,1.86v.08c.19,.03,4.43,.96,11.69,.96h0c10.02,0,25.83-1.72,44.2-9.6,.46-.19,1.32-.8,1.47-.89,9.48-6.53,12.95-10.46,18.2-16.37,1.04-1.16,2.1-2.37,3.3-3.7,1.94-2.13,7.06-14.08,7.41-17.28,.13-1.13,.3-2.28,.49-3.47v-.03c.11-.65,.22-1.34,.32-2.02l.33-2.2,.03-.21c.32-2.04,.65-4.16,.86-6.31,.21-2.13,.33-4.33,.46-6.29,.1-1.61,.21-3.28,.33-4.91,.19-2.2-.1-4.22-.84-6.23l-.02,.02Z"/><path class="cls-4" d="M146.83,79.97c-.4-1.04-.7-2.1-1.1-3.14-.96-2.53-1.94-5.05-2.93-7.57-.56-1.39-1.04-2.82-1.75-4.13-2.04-3.76-4.81-7.01-7.45-10.34-1.77-2.23-3.76-4.28-5.75-6.32-2.71-2.77-5.46-5.46-8.25-8.15-1.18-1.13-2.47-2.17-3.74-3.22-2.31-1.91-3.82-3.97-6.34-5.57-6.59-4.24-12.31-5.85-12.93-5.91,0,0-8.66-.91-9.4-.99-22.28-2.56-35.02,5.26-40.85,7.6-.76,.3-1.5,.67-2.21,1.07-.67,.37-1.37,.72-1.91,1.23-2.55,2.45-4.65,5.3-6.83,8.06-.94,1.18-1.83,2.37-2.77,3.54l-7.12,8.98c-.83,1.05-1.78,2.04-2.45,3.19-1.26,2.17-2.39,4.41-3.5,6.67-1.47,2.99-2.96,5.97-3.77,9.25-.56,2.23-1.16,11.85-.84,14.05,.57,3.92,1.16,7.85,1.8,11.75,.57,3.52,1.21,7.04,1.83,10.56,.13,.72,4.08,10.03,6,13.92,2.17,4.35,9.84,13.92,14.61,17.47,2.13,1.59,4.49,3.01,6.83,4.27,4.68,2.52,11.44,6.98,22.84,8.38,19.02,2.36,44.36-6.29,49.15-8.76,.06-.03,.22-.18,.24-.19,.08-.06,.89-.7,.89-.7,0,0,5.56-4.46,8.63-7.68,4.67-4.87,9.06-10.19,9.67-11.24,1.78-3.09,3.41-6.29,4.99-9.49,1.02-2.07,1.91-4.2,2.17-6.56,.21-1.93,.57-3.82,.84-5.75,.41-2.87,.92-5.73,1.21-8.62,.37-3.76,.48-7.53,.8-11.29,.13-1.54-.05-2.98-.59-4.4l.02,.03Z"/><path class="cls-15" d="M171.31,103.85c-.7-2.56-10.27-36.25-11.26-39.74-.05-.18-.21-.29-.38-.29-.73,0-2.5,.03-2.61,.03-2.47,.16-4.11,.18-6.58,.33-.14,0-.29-.1-.3-.25-.56-4.51-1.11-9.06-1.67-13.71-.02-.16-.16-.27-.32-.25-1.04,.08-2.13,.18-3.23,.25-3.85,.24-7.71,.49-11.55,.72-7.18,.41-14.38,.78-21.57,1.19-.61,.03-.89-.14-.97-.78-.16-1.39-.21-2.05-.35-2.84-.03-.16-.18-.25-.32-.24-3.44,.49-20.74,3.34-20.88,3.01-2.36-5.72-10.02-14.94-10.03-14.96-7.76-9.51-20.99-10.15-20.99-10.15-.3-.08-3.58-.02-3.89,.06l-7.01,1.83-7.37,2.71-13.92,5.77s-3.62,1.5-2.79,2.93l.91,2.02,3.15,4.68c2.39,2.72,9.16,8.71,9.16,8.71,.18,.18,.06,.48-.18,.49l-8.2,.75s-6.72,.76-9.7,1.16c-3.58,.48-7.17,.92-10.75,1.39-1.45,.19-5.05,.81-6.07,.99-.16,.03-.25,.18-.24,.32L10.64,124.08c.02,.1,.08,.18,.18,.21l74.06,30.23c15.04-1.67,29.61-6.82,33.14-8.62l53.24-41.74c.08-.08,.13-.19,.1-.29l-.05-.02Z"/><path class="cls-1" d="M70.65,116.46c-.8,.05-6.04,.76-7.55,1.02-.91,.16-1.45-.8-1.61-1.31-.24-.75-4.32-11.44-4.32-11.44,0,0-.13-.32-.19-.49-.05-.13-.18-.21-.32-.18-2.34,.4-4.65,.78-6.88,1.16-.13,.02-.22,.13-.24,.24-.45,3.49-1.99,11.47-2.17,12.71-.08,.51-.32,.72-.86,.78-2.23,.25-4.44,.62-6.67,.81-.56,.05-1.13-.33-1.74-.59-.11-.05-.19-.18-.18-.29,.41-4.14,.81-8.15,1.19-12.17,.49-5.13,.97-10.26,1.48-15.37,.53-5.22,1.08-10.45,1.62-15.69,.25-2.42,.48-4.86,.75-7.28,.14-1.35,.18-1.35,1.54-1.48,3.22-.29,6.45-.54,9.67-.84,.59-.05,.94,.03,1.18,.67,1.37,3.84,2.82,7.65,4.17,11.48,1.32,3.74,2.56,7.52,3.84,11.28,1.58,4.6,3.15,9.21,4.73,13.81,1.31,3.77,2.61,7.57,3.92,11.34,.41,1.19,.13,1.74-1.42,1.85l.03-.03Z"/><path class="cls-1" d="M154.84,69.61c.75-.13,1.11,.03,1.35,.81,1.16,3.71,2.42,7.39,3.6,11.09,1.32,4.14,2.64,8.3,3.9,12.47,.92,3.04,1.75,6.12,2.66,9.32,.05,.16-.06,.33-.22,.37-.72,.14-1.4,.29-2.09,.4-1.11,.18-3.03,.46-4.14,.61-.64,.08-1.16,0-1.48-.7-.75-1.58-1.86-4.09-2.66-5.65-.19-.37-.41-.72-.61-1.04-.06-.1-.18-.16-.29-.14-1.88,.27-3.47,.37-5.18,.62-.13,.02-.22,.11-.24,.24-.38,2.28-.48,5.51-.81,7.79-.1,.61-.3,.84-.91,.92-2.5,.33-4.35,.7-6.83,1.1-.64,.1-.59-.3-.61-.68-.06-2.17-.13-4.33-.16-6.48-.13-9.17-.24-18.35-.38-27.52,0-.75,.21-1.04,.97-1.16,4.71-.73,9.41-1.51,14.11-2.31v-.03Z"/><path class="cls-1" d="M35.95,94.8c-2.56,.27-5.11,.54-7.68,.81-1.13,.13-2.66,.4-3.73,.53-.18,.02-.32,.18-.3,.37l.05,.67,1.7,21.76s.08,.91,.11,1.37c0,.14-.1,.29-.24,.3-1.45,.25-2.42,.37-3.84,.56-1.9,.25-3.81,.45-5.72,.61-.65,.05-1.34-.03-1.97-.16-.18-.03-.37-.43-.4-.68-.43-2.93-.81-5.86-1.21-8.79-.76-5.59-1.51-11.18-2.26-16.77-.8-5.89-1.54-11.8-2.36-17.7-.49-3.58-1.05-7.15-1.58-10.73-.11-.73-.18-1.47-.27-2.2-.13-1.05,.73-1.23,1.35-1.34,3.39-.62,21.33-2.91,26.9-3.71,.83-.13,1.02,.35,1.1,.96,.21,1.54,.37,2.61,.56,4.16,.25,1.99,.7,4.49,1.02,6.47,.1,.61,0,1-.56,1.11-1.61,.33-4.94,.86-4.94,.86,0,0-9.21,1.61-9.7,1.67-.16,.03-.25,.16-.24,.32,.27,2.13,.92,8.86,1.11,10.02,.11,.73,.53,.94,1.23,.84,2.58-.33,4.33-.59,6.91-.91,1.34-.16,2.66-.33,4-.49h.06c.29-.05,.54,.16,.57,.45,.21,1.48,1.35,8.2,1.37,8.39,.1,.96-.08,1.16-1.05,1.26l-.02,.02Z"/><path class="cls-1" d="M77.09,116.11c-1.51,.24-1.48,.24-1.69-1.35-.94-7.37-1.75-14.73-2.69-22.11-.97-7.66-1.93-15.34-2.93-23-.11-.83,.13-1.16,.96-1.26,3.04-.37,6.08-.8,9.13-1.19,1.99-.25,3.44,.64,4.76,2.07,2.34,2.56,4.83,4.99,7.26,7.47,1.15,1.18,2.42,2.52,3.55,3.71,.11,.13,.54,.65,1,1.07,.19,.18,.49,0,.46-.25h0c-.73-5.73-1.66-11.77-2.39-17.5-.53-4.03-.46-3.09-1-7.1-.06-.46,.08-.65,.51-.75,4.67-.91,10.85-1.53,10.85-1.53,1-.08,1.18,.05,1.29,.84,.33,2.47,1.16,8.41,1.58,11.88,.48,3.95,3.41,28.8,4.65,39.56,.06,.54,.14,1.59,.32,3.79,.06,.94-.37,1.07-.75,1.18-.62,.18-4.56,.78-6.23,1.05-.54,.1-.84-.11-1.19-.49-6.64-7.49-18.25-21.01-18.28-21.06-.27-.32-.62-.22-.62-.22l-.33,.08c-.14,.03-.25,.18-.24,.32,.05,.65,.48,4.94,.78,7.76,.33,3.27,1.47,12.22,1.47,12.22,0,0,.21,1.94,.24,2.91,0,.51-.41,.68-.92,.75-2.93,.35-6.04,.73-8.97,1.1-.19,.02-.38,.03-.57,.06h.02Z"/><path class="cls-1" d="M110.13,56.35c5.4-.32,13.2-.84,18.59-1.16,4.41-.25,12.1-.83,13.94-.97,.62-.05,.59,.38,.65,.72,.4,2.55,.75,5.42,1.15,7.95,.18,1.16,.24,2.31,.43,3.47,.21,1.26-1.02,1.16-1.08,1.16-1.45,.05-7.39,.37-8.76,.57-.21,.03-.37,.22-.35,.43,.14,3.25,.27,6.4,.41,9.57,.21,4.38,.41,8.76,.62,13.14,.19,4.27,.38,8.54,.56,12.81,.05,1.23,.08,2.47,.11,3.7,.02,.61-.21,.83-.88,.84-1.59,.05-2.36,.22-3.95,.33-1.31,.1-7.93,.8-8.01,.8-1.48,.13-1.43-.94-1.51-1.93-.49-5.56-1-11.13-1.48-16.69-.41-4.75-.67-9.17-1.04-13.94-.19-2.56-.46-5.45-.61-7.96,0-.24-.21-.41-.45-.38-1.48,.11-6.64,.46-6.66,.48-.22,.02-.4-.08-.56-.21-.25-.22-.4-.54-.43-.88l-1.26-8.74-.22-1.96c-.03-.33,.06-.68,.29-.92,.13-.13,.29-.24,.48-.24l.02,.02Z"/><g class="cls-8"><g><path class="cls-10" d="M16.31,121.77h-.96c.32,.02,.64,.03,.96,0Z"/><path class="cls-10" d="M6.32,63.08c-.18,.19-.25,.46-.21,.86,.1,.75,.16,1.5,.27,2.23,.53,3.63,1.1,7.25,1.59,10.88,.81,5.97,1.59,11.96,2.39,17.93l2.29,17.01c.4,2.98,.81,5.94,1.23,8.92,.03,.25,.22,.67,.41,.7,.33,.06,.68,.13,1.04,.14h.97L6.59,62.85l-.27,.22Z"/></g></g><g class="cls-5"><g><polygon class="cls-14" points="120.53 69.7 123.35 110.65 120.81 111.08 116.74 70.53 120.53 69.7"/><path class="cls-14" d="M113.38,71.5l-2.01-13.54c-.03-.22,.13-.43,.37-.45l34.94-2.68-.56-3.12-37.73,2.96,1.75,17.25,3.23-.41v-.02Z"/></g></g><g class="cls-2"><g><path class="cls-14" d="M140.76,108.36l1.18-33.75c.02-.53,.45-.97,.97-1l15.24-2.6-1.4-2.74-18.36,2.44-.68,38.62,3.06-.97Z"/><polygon class="cls-14" points="155.32 98.02 156.8 97.73 161.12 105.39 156.55 105.55 155.32 98.02"/></g></g><g class="cls-11"><g><polygon class="cls-14" points="43.34 66.95 39.7 119.92 37.59 119.76 42.83 66.29 43.34 66.95"/><polygon class="cls-14" points="59.5 104.42 63.99 119.06 61.4 118.26 56.35 105.31 59.5 104.42"/></g></g><g class="cls-6"><g><path class="cls-14" d="M76.29,116.53l-5.49-46.24c-.03-.22,.13-.43,.35-.46l13.6-1.88-4.38-4.51-13.47,2.26,7.41,54.96,1.99-4.13v-.02Z"/><path class="cls-14" d="M96.25,81.31c.35,.41,1.77,1.24,1.77,1.24l-2.69-25.69,12.55-.94-.97-5.73-15.43,4.24,3.19,23.51s.99,2.66,1.59,3.38Z"/></g></g><polygon class="cls-14" points="55.39 95.26 52.81 87.78 52.81 87.78 55.39 95.26 49.26 96.2 50.14 97.35 55.81 96.06 55.39 95.26"/><path class="cls-15" d="M52.81,87.78l-.14-.4c-.1-.27-.37-.45-.65-.43l-.96,.1c-.37,.03-.65,.32-.7,.68l-1.08,8.46,6.13-.92-2.58-7.49h-.02Z"/><path class="cls-14" d="M154.91,88.77c-.59,2.9-4.06,4.11-6.9,.35-.35-.46-.14-1.15,.41-1.05,3.11,.51,5.53-.68,5.96-.78,.61-.13,.86-.16,.53,1.48"/><path class="cls-15" d="M154.35,87.48c-.59,2.9-4.06,4.11-6.9,.35-.35-.46-.14-1.15,.41-1.05,3.11,.51,5.53-.68,5.96-.78,.61-.13,.86-.16,.53,1.48"/><g class="cls-13"><g><path class="cls-10" d="M16.31,121.77h-.96c.32,.02,.64,.03,.96,0Z"/><path class="cls-14" d="M6.32,63.08c-.18,.19-.25,.46-.21,.86,.1,.75,.16,1.5,.27,2.23,.53,3.63,1.1,7.25,1.59,10.88,.81,5.97,1.59,11.96,2.39,17.93l2.29,17.01c.4,2.98,.81,5.94,1.23,8.92,.03,.25,.22,.67,.41,.7,.33,.06,.68,.13,1.04,.14h.97L6.59,62.85l-.27,.22Z"/></g></g><path class="cls-12" d="M29.78,43.1c-.78-.83-1.51-1.7-2.25-2.56-.33-.4-.32-.62,.1-.96,.53-.43,5.69-2.39,7.71-3.14,9.6-3.57,13.2-6.63,20.29-6.56,9.76,.08,12.79,3.06,13.65,3.55,.48,.29,1.59,1.07,1.59,1.07,9.13,5.72,13.14,17.57,14.14,20.18,2.26,5.91,7.72,15.91,7.85,16.25,.27,.73,.14,1.02-.59,1.27-.43,.16-6.29-9.25-6.29-9.27-2.52-4.17-6.8-4.89-8.97-4.62-.59,.08-1.16,.18-1.16,.19-.3,.03-2.53,.38-3.7,.56-13.75,2.13-17.93,.76-21.01-.21-4.51-1.42-8.87-4.3-12.47-7.23-4.73-3.84-8.17-7.76-8.89-8.52h-.02Z"/><g class="cls-3"><g><path class="cls-15" d="M30.94,39.52l-1.26,.81s9,11.31,23.44,19.11c.41,.22-4.63-.57-4.63-.57l-9.06-4.49-10.19-9.62-3.65-5.19,27.76-11.15s.24,1.23-.4,1.45c-8.79,3.19-22,9.64-22,9.64l-.02,.02Z"/><path class="cls-15" d="M73.88,58.77l3.5-1.07c.62-.19,1.29-.35,1.94-.38,.7-.03,2.37,.37,2.68,.57,6.21,4.3,8.49,12.93,8.49,12.93l-7.71-9.52-8.89-2.55-.02,.02Z"/></g></g><path class="cls-15" d="M38.75,43.6c-.19,0-.25,.25-.1,.35,4.17,2.42,8.35,4.86,12.33,7.58,2.1,1.43,4.19,2.98,6.63,3.71,3.6,1.1,7.37,.32,10.99-.25,3.7-.59,8-1.42,6.83-1.67-1.5-.33-2.63-.81-4.13-1.18-4.68-1.16-9.35-2.61-13.67-4.79-4.03-2.04-8.06-4.79-12.58-4.57-2.12,.1-4.2,.88-6.31,.83Z"/><path class="cls-7" d="M137.93,124.2l.06,.22-.06-.22Z"/><path class="cls-9" d="M137.93,124.2l.06,.22-.06-.22Z"/><path class="cls-15" d="M172.89,100.19c-.25-1.64,.72-3.03,2.39-3.3,1.69-.27,3.03,.73,3.28,2.39,.27,1.66-.7,3.03-2.37,3.3-1.69,.27-3.03-.73-3.3-2.39Zm5.08-.81c-.21-1.32-1.29-2.13-2.61-1.91-1.35,.22-2.1,1.31-1.9,2.63s1.29,2.13,2.61,1.93c1.34-.21,2.09-1.31,1.88-2.64h.02Zm-1.74,1.48l-.48-.54-.24,.03,.08,.49c.05,.29-.08,.48-.35,.53h-.13c-.27,.06-.46-.13-.51-.48l-.3-1.91c-.06-.35,.1-.57,.41-.62l.91-.14c.86-.14,1.35,.11,1.45,.78,.06,.4-.1,.73-.45,.94l.73,.76s-.21,.38-.53,.43c-.19,.03-.41-.03-.61-.29v.02Zm-.84-1.19l.38-.06c.25-.05,.37-.18,.33-.38-.03-.21-.19-.3-.46-.25l-.35,.06,.1,.64Z"/></g></g></svg>